<svg width="512" height="512" viewBox="0 0 512 512" fill="none" xmlns="http://www.w3.org/2000/svg">
<rect width="512" height="512" rx="157" fill="#6201A4"/>
<path d="M150.649 208.25C161.149 208.25 170.649 210.417 179.149 214.75C187.649 218.917 194.316 225.417 199.149 234.25C204.149 243.083 206.649 254.5 206.649 268.5V346H159.149V276.25C159.149 266.583 157.149 259.583 153.149 255.25C149.316 250.75 143.899 248.5 136.899 248.5C131.899 248.5 127.316 249.667 123.149 252C118.983 254.167 115.733 257.583 113.399 262.25C111.066 266.917 109.899 273 109.899 280.5V346H62.3994V210.5H107.649V249L98.8994 237.75C104.066 227.917 111.149 220.583 120.149 215.75C129.149 210.75 139.316 208.25 150.649 208.25ZM275.972 321L277.222 264.25L332.472 210.5H388.722L327.472 273.75L303.222 293.25L275.972 321ZM236.472 346V160.5H283.972V346H236.472ZM335.972 346L294.472 294L323.972 257.5L393.472 346H335.972ZM430.3 348.25C422.3 348.25 415.55 345.583 410.05 340.25C404.55 334.917 401.8 328.167 401.8 320C401.8 311.5 404.55 304.75 410.05 299.75C415.55 294.583 422.3 292 430.3 292C438.3 292 445.05 294.583 450.55 299.75C456.05 304.75 458.8 311.5 458.8 320C458.8 328.167 456.05 334.917 450.55 340.25C445.05 345.583 438.3 348.25 430.3 348.25Z" fill="white"/>
</svg>
